<?xml version="1.0" standalone="no"?>
<!DOCTYPE svg PUBLIC "-//W3C//DTD SVG 1.1//EN" "http://www.w3.org/Graphics/SVG/1.1/DTD/svg11.dtd">
<svg xmlns="http://www.w3.org/2000/svg" version="1.1" width="375" height="398" viewBox="0 0 375 398">
<path d="M0 0 C25.08 0 50.16 0 76 0 C80.62 8.25 85.24 16.5 90 25 C92.46416655 29.28180574 94.93105396 33.55621212 97.4375 37.8125 C100.74609375 43.45703125 100.74609375 43.45703125 102.33544922 46.17431641 C103.53420349 48.20928003 104.74574411 50.23673091 105.96533203 52.25927734 C106.60712402 53.33258301 107.24891602 54.40588867 107.91015625 55.51171875 C108.50062744 56.48971436 109.09109863 57.46770996 109.69946289 58.4753418 C111 61 111 61 111 64 C85.35430042 66.66589822 85.35430042 66.66589822 78.77490234 62.63769531 C75.3486076 58.89594408 73.65660476 54.28968209 71.96191406 49.56835938 C70.24795292 44.99199613 67.98912175 40.73971507 65.6875 36.4375 C65.30891846 35.59856201 64.93033691 34.75962402 64.5402832 33.89526367 C63.2181266 31.35473751 62.2707346 29.76168829 60 28 C55.58188266 27.29472012 51.433194 27.50260128 47 28 C54.50765546 41.54062322 62.07430287 55.01811866 70.08666992 68.26806641 C70.60205322 69.12706543 71.11743652 69.98606445 71.6484375 70.87109375 C72.10395996 71.62318115 72.55948242 72.37526855 73.02880859 73.15014648 C74 75 74 75 74 77 C89.18 77 104.36 77 120 77 C126.26953125 87.8671875 132.5390625 98.734375 138.80859375 109.6015625 C139.42001221 110.66117187 140.03143066 111.72078125 140.66137695 112.8125 C141.88841537 114.93973589 143.11481387 117.06734102 144.34057617 119.1953125 C147.27253906 124.28350504 150.21088254 129.36769269 153.17169189 134.43914795 C154.57178169 136.8381957 155.96828095 139.2393241 157.36450195 141.640625 C158.35343237 143.33798226 159.34755838 145.03230902 160.34179688 146.7265625 C161.23608398 148.26570313 161.23608398 148.26570313 162.1484375 149.8359375 C162.67614746 150.73876465 163.20385742 151.6415918 163.74755859 152.57177734 C164.89843326 154.80308328 165.70874838 156.51298672 166 159 C164.75317703 161.71923248 163.44954729 164.18293746 161.9375 166.75 C161.49140381 167.52859375 161.04530762 168.3071875 160.58569336 169.109375 C159.06939425 171.74686487 157.53465187 174.37315191 156 177 C154.86642464 178.96310136 153.73363457 180.92665635 152.6015625 182.890625 C149.66441368 187.97200258 146.69934376 193.03625589 143.71630859 198.09082031 C142.59625651 199.9893325 141.47925055 201.88964605 140.36572266 203.79199219 C138.87971578 206.3263178 137.37993982 208.8518836 135.875 211.375 C135.43808838 212.12394531 135.00117676 212.87289062 134.55102539 213.64453125 C133.93408813 214.66740234 133.93408813 214.66740234 133.3046875 215.7109375 C132.95390137 216.30181152 132.60311523 216.89268555 132.24169922 217.50146484 C130.71944624 219.33858414 129.17370224 220.06955708 127 221 C122.63141722 214.66497404 118.73383884 208.16284177 115 201.4375 C110.47058816 193.3506167 105.87575476 185.30834551 101.1875 177.3125 C95.3162645 167.29089415 89.53293247 157.22177407 83.78588867 147.12866211 C80.72928438 141.76275012 77.66222346 136.40404027 74.54296875 131.07421875 C74.02436279 130.18710205 73.50575684 129.29998535 72.97143555 128.38598633 C72.01703179 126.75730827 71.05907121 125.13070729 70.09692383 123.5065918 C67 118.21955819 67 118.21955819 67 116 C87.73794038 111.76140049 87.73794038 111.76140049 97 115 C103.16279828 120.21326307 106.115764 128.20480274 109.3359375 135.421875 C111.93814603 141.01723419 115.01346659 146.31618752 118.12225342 151.64190674 C119.10988261 153.34887191 120.07009044 155.07160813 121.02978516 156.79443359 C121.62065918 157.83937988 122.2115332 158.88432617 122.8203125 159.9609375 C123.33867676 160.88696777 123.85704102 161.81299805 124.39111328 162.76708984 C126.09515689 165.13206448 127.30774234 165.97608092 130 167 C130.70226141 165.75823305 131.38629109 164.50614401 132.0625 163.25 C132.44535156 162.55390625 132.82820312 161.8578125 133.22265625 161.140625 C134.16533468 158.54470651 133.82251254 157.59459241 133 155 C131.65100195 152.37841773 130.26387688 149.8139109 128.8125 147.25 C128.37905273 146.47720703 127.94560547 145.70441406 127.49902344 144.90820312 C121.98936207 135.13287361 116.46325022 125.32977068 110.56030273 115.78613281 C109 113 109 113 108.01977539 110.04980469 C106.7387828 106.69385717 105.92685654 105.13030332 103 103 C96.80436044 101.85645068 90.29977357 102.69013184 84.05599976 103.08261108 C62.12381474 104.25984532 62.12381474 104.25984532 54.87695312 100.28857422 C50.23784223 95.52963005 48.29000331 89.57900747 46.24707031 83.36376953 C44.2022107 77.84809299 41.13135648 72.92467627 38.11682129 67.89804077 C36.35890729 64.94177571 34.67219466 61.94538849 32.9765625 58.953125 C29.33844213 52.56938461 25.6472231 46.21734475 21.9375 39.875 C20.80854879 37.9427346 19.67964284 36.01044276 18.55078125 34.078125 C17.98182129 33.10423828 17.41286133 32.13035156 16.82666016 31.12695312 C15.92246338 29.57911133 15.92246338 29.57911133 15 28 C14.66579041 27.42822021 14.33158081 26.85644043 13.98724365 26.26733398 C11.86942414 22.64324467 9.7563173 19.01647282 7.6489563 15.3862915 C6.64263302 13.65533028 5.63178048 11.92700477 4.62084961 10.19873047 C4.01635986 9.15604004 3.41187012 8.11334961 2.7890625 7.0390625 C2.24975098 6.11303223 1.71043945 5.18700195 1.15478516 4.23291016 C0 2 0 2 0 0 Z " fill="#08215B" transform="translate(63,127)"/>
<path d="M0 0 C16.47580127 -0.02362396 32.95159684 -0.04112102 49.42741108 -0.05181217 C57.08174021 -0.05691374 64.73605857 -0.06386201 72.39038086 -0.07543945 C138.36431732 -0.17333106 138.36431732 -0.17333106 166 1 C164.55269781 5.51725516 162.81334435 9.38105611 160.4453125 13.5 C160.10249237 14.09876953 159.75967224 14.69753906 159.40646362 15.31445312 C158.68448348 16.57307367 157.95992306 17.83021729 157.23291016 19.0859375 C156.12991746 20.99150444 155.03500453 22.90152917 153.94140625 24.8125 C144.45889364 41.3123354 144.45889364 41.3123354 139.3046875 43.6328125 C138.42425781 44.04660156 137.54382813 44.46039063 136.63671875 44.88671875 C135.72535156 45.29535156 134.81398438 45.70398438 133.875 46.125 C132.05472328 46.94961344 130.23933287 47.78512253 128.4296875 48.6328125 C127.22675049 49.17252686 127.22675049 49.17252686 125.99951172 49.72314453 C123.6717675 51.2096039 122.99160258 52.46039934 122 55 C122.433125 55.50789063 122.86625 56.01578125 123.3125 56.5390625 C123.869375 57.22742188 124.42625 57.91578125 125 58.625 C125.556875 59.29789063 126.11375 59.97078125 126.6875 60.6640625 C128.41088935 63.73128521 128.31371996 65.49950434 128 69 C126.59472656 72.14038086 126.59472656 72.14038086 124.640625 75.46484375 C124.29497498 76.06124161 123.94932495 76.65763947 123.59320068 77.27210999 C122.49081515 79.16790252 121.37093146 81.05262624 120.25 82.9375 C119.51182463 84.19917068 118.77483385 85.46153523 118.0390625 86.72460938 C116.67424048 89.06430154 115.30153803 91.39860237 113.92285156 93.73022461 C111.91910689 97.13755732 109.95480671 100.56441906 108 104 C104.8457567 103.69666205 103.39099892 103.42443857 101.20727539 101.05395508 C99.47026953 98.31895465 97.745235 95.58134716 96.0625 92.8125 C95.14114258 91.39227539 95.14114258 91.39227539 94.20117188 89.94335938 C89.91860865 83.0089943 89.91860865 83.0089943 90.24609375 78.94921875 C90.82488281 77.97597656 91.40367187 77.00273437 92 76 C92.49250244 75.14768799 92.98500488 74.29537598 93.49243164 73.41723633 C94.9543252 70.91691082 96.45896415 68.45208849 98 66 C93.89555833 66.13867261 89.7915296 66.28716103 85.6875 66.4375 C84.52025391 66.47681641 83.35300781 66.51613281 82.15039062 66.55664062 C81.03212891 66.59853516 79.91386719 66.64042969 78.76171875 66.68359375 C77.73006592 66.72025146 76.69841309 66.75690918 75.63549805 66.79467773 C72.89251742 66.90161242 72.89251742 66.90161242 70 68 C70.36125977 68.61182129 70.72251953 69.22364258 71.09472656 69.85400391 C97.74318821 115.06211745 97.74318821 115.06211745 97 123 C95.66559266 126.10453954 93.93079879 128.89952422 92.125 131.75 C91.66480469 132.50410156 91.20460938 133.25820313 90.73046875 134.03515625 C88.87469094 137.06357047 86.97034551 140.04448173 85 143 C82.42454259 142.64222135 81.28939342 142.35068926 79.60644531 140.3112793 C79.18459961 139.57304932 78.76275391 138.83481934 78.328125 138.07421875 C77.83715332 137.22956055 77.34618164 136.38490234 76.84033203 135.51464844 C76.05311768 134.11520996 76.05311768 134.11520996 75.25 132.6875 C74.40671143 131.22425293 74.40671143 131.22425293 73.54638672 129.73144531 C71.6850872 126.4946236 69.84240629 123.2476074 68 120 C66.70677032 117.74028925 65.41248526 115.48118218 64.1171875 113.22265625 C61.41938393 108.5140344 58.72865627 103.80147761 56.04296875 99.0859375 C52.1972589 92.33579073 48.3226755 85.6025149 44.4375 78.875 C43.82277832 77.81055664 43.20805664 76.74611328 42.57470703 75.64941406 C41.33625187 73.50544627 40.09764545 71.36156584 38.85888672 69.21777344 C35.73675394 63.81329353 32.61861096 58.40651263 29.5 53 C28.260426 50.85155711 27.02084265 48.70311962 25.78125 46.5546875 C23.51457181 42.6258575 21.24842761 38.69672062 18.98303223 34.76715088 C17.97380896 33.01658759 16.96446164 31.26609589 15.95507812 29.515625 C14.6983234 27.33607835 13.44179414 25.15640168 12.18554688 22.9765625 C11.60869141 21.97625 11.03183594 20.9759375 10.4375 19.9453125 C9.87804687 18.97368164 9.31859375 18.00205078 8.7421875 17.00097656 C7.5088222 14.87646335 6.26274096 12.75930869 5.0078125 10.64746094 C4.36585938 9.5649707 3.72390625 8.48248047 3.0625 7.3671875 C2.47597656 6.3860498 1.88945312 5.40491211 1.28515625 4.39404297 C0 2 0 2 0 0 Z M47 28 C48.22351016 32.04699513 49.4107743 35.63042476 52 39 C54.74242687 39.79234188 54.74242687 39.79234188 57.93676758 39.72631836 C59.15846146 39.75821762 60.38015533 39.79011688 61.63887024 39.82298279 C62.97408052 39.83062778 64.30930407 39.83619673 65.64453125 39.83984375 C67.01593394 39.85591547 68.38732804 39.87273651 69.75871277 39.89027405 C72.63467255 39.92021567 75.50988169 39.92947596 78.38598633 39.92651367 C82.06307429 39.92600617 85.73531903 39.99416558 89.41125965 40.08037472 C92.24515103 40.13613238 95.07788407 40.14610554 97.91226768 40.14346504 C99.92330595 40.15219731 101.9339822 40.20632408 103.94429016 40.26121521 C107.57124761 40.2158966 110.53975984 40.09437146 114 39 C116.68599469 36.23194245 120 32.10020489 120 28 C95.61225644 27.19353667 71.38056188 26.85215888 47 28 Z " fill="#08215B" transform="translate(153,127)"/>
<path d="M0 0 C0.66 0 1.32 0 2 0 C3.99014747 3.44622021 5.97986705 6.89268711 7.96923828 10.33935547 C8.96756247 12.0688067 9.96619789 13.79807825 10.96484375 15.52734375 C11.9591943 17.25022837 12.95327741 18.97335874 13.92858887 20.70709229 C15.60675495 23.67569191 17.34049737 26.53292219 19.30273438 29.32324219 C25.55173917 38.51979863 25.4521685 45.63907403 24.65719604 56.49966431 C23.63426529 69.39523906 23.63426529 69.39523906 28.20654297 80.96728516 C33.85986251 85.58134118 40.19477442 88.03052456 46.95800781 90.58325195 C54.57463404 94.13054585 60.31494938 100.44964605 64.375 107.6875 C64.72095215 108.2961792 65.0669043 108.9048584 65.42333984 109.53198242 C66.19296712 110.89613924 66.95310516 112.26568096 67.70507812 113.63964844 C69.2025426 116.36918964 70.73453964 119.0782449 72.265625 121.7890625 C73.38718613 123.79588712 74.50698645 125.80369684 75.625 127.8125 C76.17075684 128.78598389 76.71651367 129.75946777 77.27880859 130.76245117 C77.77719238 131.6722876 78.27557617 132.58212402 78.7890625 133.51953125 C79.23975098 134.33526611 79.69043945 135.15100098 80.15478516 135.99145508 C80.43370605 136.6542749 80.71262695 137.31709473 81 138 C80.67 138.66 80.34 139.32 80 140 C63.97512627 131.17811304 48.05485776 122.21324826 32.28955078 112.93310547 C28.56025754 110.74158522 24.8253582 108.55979766 21.08984375 106.37890625 C19.0749774 105.20159433 17.060247 104.02405023 15.04559326 102.84637451 C13.72897333 102.07697183 12.41212131 101.30796615 11.09503174 100.53936768 C9.26169795 99.46913974 7.42953401 98.3969365 5.59765625 97.32421875 C4.54070557 96.70635498 3.48375488 96.08849121 2.39477539 95.4519043 C0 94 0 94 -1 93 C-1.10046202 90.35913568 -1.13616624 87.74439925 -1.12939453 85.10302734 C-1.13114685 84.2753183 -1.13289917 83.44760925 -1.13470459 82.59481812 C-1.13912702 79.84183694 -1.13618215 77.0889194 -1.1328125 74.3359375 C-1.13348581 72.42599475 -1.13445607 70.51605208 -1.13571167 68.60610962 C-1.13718948 64.59270415 -1.13503284 60.57932087 -1.13037109 56.56591797 C-1.12469682 51.43130393 -1.12793762 46.29674243 -1.13394356 41.16213036 C-1.13756665 37.21236784 -1.13640215 33.26261766 -1.13381577 29.31285477 C-1.13315013 27.42070128 -1.13396219 25.52854666 -1.13629532 23.6363945 C-1.13884794 20.9820131 -1.13494355 18.32771508 -1.12939453 15.67333984 C-1.13141876 14.89591431 -1.13344299 14.11848877 -1.13552856 13.31750488 C-1.11803692 8.77811202 -0.74495298 4.47946941 0 0 Z " fill="#08215B" transform="translate(73,178)"/>
<path d="M0 0 C2.31738281 1.05639648 2.31738281 1.05639648 4.703125 2.37109375 C6.03585449 3.10066284 6.03585449 3.10066284 7.39550781 3.8449707 C8.80848145 4.63327271 8.80848145 4.63327271 10.25 5.4375 C11.23581055 5.98172607 12.22162109 6.52595215 13.23730469 7.08666992 C20.33196949 11.02208164 27.34403758 15.08338669 34.31640625 19.23046875 C40.24220355 22.74911642 46.21647941 26.18385776 52.1875 29.625 C53.30656738 30.27001465 54.42563477 30.9150293 55.57861328 31.57958984 C63.3757813 36.07054636 71.17965469 40.54951258 79 45 C79 45.66 79 46.32 79 47 C25.20439533 49.69926745 25.20439533 49.69926745 7.90478516 35.55664062 C5.01299311 33.19339196 2.44023646 31.50384014 -1 30 C-5.76283374 30.82696722 -9.90257187 33.3847623 -14.125 35.6875 C-15.00671875 36.15833008 -15.00671875 36.15833008 -15.90625 36.63867188 C-16.51726562 36.96802734 -17.12828125 37.29738281 -17.7578125 37.63671875 C-18.43070313 37.98968018 -19.10359375 38.3426416 -19.796875 38.70629883 C-22.08666495 39.98304766 -22.08666495 39.98304766 -24.296875 41.81518555 C-34.69634302 49.38183387 -46.44339618 47.77154668 -58.75 47.4375 C-61.00776401 47.40233385 -63.26558087 47.37040424 -65.5234375 47.34179688 C-71.01679131 47.26521284 -76.50814538 47.14854165 -82 47 C-80.17216732 42.90753615 -78.22180693 41.62553891 -74.3046875 39.3828125 C-73.7291362 39.04923737 -73.1535849 38.71566223 -72.56059265 38.37197876 C-70.67091434 37.27973697 -68.77310756 36.2025151 -66.875 35.125 C-65.55399449 34.36466844 -64.23360653 33.60326298 -62.91381836 32.84082031 C-60.23010269 31.29210562 -57.54341543 29.74876257 -54.85400391 28.20996094 C-50.38643043 25.65179981 -45.93848708 23.06050807 -41.49389648 20.46264648 C-39.54865502 19.3261537 -37.60156418 18.19282008 -35.65258789 17.06274414 C-30.66454913 14.16693982 -25.712222 11.22480777 -20.796875 8.20703125 C-19.79197021 7.59569336 -18.78706543 6.98435547 -17.75170898 6.35449219 C-15.84006317 5.18899004 -13.9354595 4.01183067 -12.03930664 2.82128906 C-11.18715576 2.30405273 -10.33500488 1.78681641 -9.45703125 1.25390625 C-8.71428955 0.79314697 -7.97154785 0.3323877 -7.20629883 -0.14233398 C-4.34235358 -1.25565031 -2.90997735 -0.91284546 0 0 Z " fill="#08215B" transform="translate(194,66)"/>
<path d="M0 0 C0.33 0 0.66 0 1 0 C1 31.35 1 62.7 1 95 C-28.09565637 111.7859556 -28.09565637 111.7859556 -39.125 118.0625 C-46.09386106 122.03055056 -53.05165864 126.01484726 -59.9609375 130.0859375 C-61.61391846 131.05841431 -61.61391846 131.05841431 -63.30029297 132.05053711 C-65.38271622 133.27860436 -67.46261269 134.51096974 -69.53955078 135.74829102 C-70.46493652 136.29412842 -71.39032227 136.83996582 -72.34375 137.40234375 C-73.15005859 137.88179443 -73.95636719 138.36124512 -74.78710938 138.85522461 C-76.87547429 139.9355802 -78.70268257 140.54611571 -81 141 C-74.78118918 127.88601223 -67.66040429 115.32700254 -60 103 C-59.40082764 101.98856934 -58.80165527 100.97713867 -58.18432617 99.93505859 C-55.74865825 96.66227445 -53.63557197 95.19744795 -50.09765625 93.203125 C-48.96005859 92.55472656 -47.82246094 91.90632813 -46.65039062 91.23828125 C-45.45444701 90.57548488 -44.25848329 89.91272479 -43.0625 89.25 C-41.8697523 88.5728292 -40.67768794 87.89445331 -39.48632812 87.21484375 C-30.09304415 81.90952547 -30.09304415 81.90952547 -25 80 C-25.01160156 78.87207031 -25.02320313 77.74414062 -25.03515625 76.58203125 C-25.06329049 73.23081066 -25.04641387 69.88237203 -25.01171875 66.53125 C-24.97857042 62.97374583 -25.06924717 59.45767907 -25.26953125 55.90625 C-25.77651784 40.94726489 -19.9388472 31.02931722 -11.82714844 18.77490234 C-10.12386113 16.18810871 -8.48999267 13.5730561 -6.8828125 10.92578125 C-2.39693776 3.55101891 -2.39693776 3.55101891 0 0 Z " fill="#08215B" transform="translate(309,177)"/>
</svg>